<?xml version="1.0" encoding="utf-8"?>
<!-- Generator: Adobe Illustrator 22.1.0, SVG Export Plug-In . SVG Version: 6.00 Build 0)  -->
<svg version="1.1" id="Слой_1" xmlns="http://www.w3.org/2000/svg" xmlns:xlink="http://www.w3.org/1999/xlink" x="0px" y="0px"
	 viewBox="0 0 901.8 555.9" enable-background="new 0 0 901.8 555.9" xml:space="preserve">
<g>
	<g>
		<defs>
			<path id="SVGID_1_" d="M72.5,320.4C42.8,361.8,11.6,500,166.6,543c83.5,23.1,178.6,11.7,256-5.7
				c209.8-56.7,485.9-201.1,479-398.6c-1.1-34.3-16.3-61.8-39.9-82.5c-74.5-65.6-217-63.8-328.3-38.3
				c-45.3,10.4-90.7,23.9-133.6,41.8c-45.9,19.2-88.6,43.6-127.4,68.3c99.2-40.2,170.4-74.4,268.3-94.1
				C643.5,13,823.7,6.6,840.6,135c5.7,118.1-116.9,224.1-261,296.5c-74.2,37.2-160.4,73.8-247.4,88.9
				c-74.2,12.9-149,10.1-217.3-21.3C56.6,472.3,36.1,412.7,72.5,320.4L72.5,320.4z"/>
		</defs>
		<clipPath id="SVGID_2_">
			<use xlink:href="#SVGID_1_"  overflow="visible"/>
		</clipPath>
		<g clip-path="url(#SVGID_2_)">
			
				<rect x="9.6" y="238.1" transform="matrix(0.8998 -0.4364 0.4364 0.8998 -201.1744 83.3454)" fill-rule="evenodd" clip-rule="evenodd" fill="#DD2A1B" width="142.5" height="483.1"/>
		</g>
		<g clip-path="url(#SVGID_2_)">
			
				<rect x="143.4" y="206.6" transform="matrix(0.8995 -0.4369 0.4369 0.8995 -181.1977 108.6653)" fill-rule="evenodd" clip-rule="evenodd" fill="#DD2B1B" width="4.4" height="483.1"/>
		</g>
		<g clip-path="url(#SVGID_2_)">
			
				<rect x="146" y="205.4" transform="matrix(0.8995 -0.4369 0.4369 0.8995 -180.3754 109.6889)" fill-rule="evenodd" clip-rule="evenodd" fill="#DD2B1B" width="4.4" height="483.1"/>
		</g>
		<g clip-path="url(#SVGID_2_)">
			<polygon fill-rule="evenodd" clip-rule="evenodd" fill="#DD2C1B" points="43.5,229.3 47.5,227.3 258.3,662 254.3,663.9 			"/>
		</g>
		<g clip-path="url(#SVGID_2_)">
			<polygon fill-rule="evenodd" clip-rule="evenodd" fill="#DD2C1B" points="46.1,228 50.1,226.1 260.9,660.7 256.9,662.7 			"/>
		</g>
		<g clip-path="url(#SVGID_2_)">
			<polygon fill-rule="evenodd" clip-rule="evenodd" fill="#DE2D1A" points="48.8,226.7 52.7,224.8 263.5,659.5 259.6,661.4 			"/>
		</g>
		<g clip-path="url(#SVGID_2_)">
			<polygon fill-rule="evenodd" clip-rule="evenodd" fill="#DE2E1A" points="51.4,225.4 55.4,223.5 266.2,658.2 262.2,660.1 			"/>
		</g>
		<g clip-path="url(#SVGID_2_)">
			<polygon fill-rule="evenodd" clip-rule="evenodd" fill="#DE2E1A" points="54.1,224.1 58,222.2 268.8,656.9 264.8,658.8 			"/>
		</g>
		<g clip-path="url(#SVGID_2_)">
			
				<rect x="161.9" y="197.7" transform="matrix(0.8995 -0.4369 0.4369 0.8995 -175.4278 115.8342)" fill-rule="evenodd" clip-rule="evenodd" fill="#DE2F1A" width="4.4" height="483.1"/>
		</g>
		<g clip-path="url(#SVGID_2_)">
			<polygon fill-rule="evenodd" clip-rule="evenodd" fill="#DE301A" points="59.3,221.6 63.3,219.7 274.1,654.3 270.1,656.3 			"/>
		</g>
		<g clip-path="url(#SVGID_2_)">
			<polygon fill-rule="evenodd" clip-rule="evenodd" fill="#DE301A" points="62,220.3 65.9,218.4 276.7,653.1 272.8,655 			"/>
		</g>
		<g clip-path="url(#SVGID_2_)">
			<polygon fill-rule="evenodd" clip-rule="evenodd" fill="#DE311A" points="64.6,219 68.6,217.1 279.4,651.8 275.4,653.7 			"/>
		</g>
		<g clip-path="url(#SVGID_2_)">
			<polygon fill-rule="evenodd" clip-rule="evenodd" fill="#DE311A" points="67.2,217.7 71.2,215.8 282,650.5 278.1,652.4 			"/>
		</g>
		<g clip-path="url(#SVGID_2_)">
			<polygon fill-rule="evenodd" clip-rule="evenodd" fill="#DF321A" points="69.9,216.5 73.8,214.5 284.6,649.2 280.7,651.1 			"/>
		</g>
		<g clip-path="url(#SVGID_2_)">
			<polygon fill-rule="evenodd" clip-rule="evenodd" fill="#DF331A" points="72.5,215.2 76.5,213.3 287.3,648 283.3,649.9 			"/>
		</g>
		<g clip-path="url(#SVGID_2_)">
			<polygon fill-rule="evenodd" clip-rule="evenodd" fill="#DF3319" points="75.2,213.9 79.1,212 289.9,646.6 286,648.6 			"/>
		</g>
		<g clip-path="url(#SVGID_2_)">
			<polygon fill-rule="evenodd" clip-rule="evenodd" fill="#DF3419" points="77.8,212.6 81.8,210.7 292.6,645.4 288.6,647.3 			"/>
		</g>
		<g clip-path="url(#SVGID_2_)">
			<polygon fill-rule="evenodd" clip-rule="evenodd" fill="#DF3519" points="80.4,211.4 84.4,209.4 295.2,644.1 291.2,646 			"/>
		</g>
		<g clip-path="url(#SVGID_2_)">
			<polygon fill-rule="evenodd" clip-rule="evenodd" fill="#DF3519" points="83.1,210.1 87,208.2 297.8,642.8 293.9,644.7 			"/>
		</g>
		<g clip-path="url(#SVGID_2_)">
			<polygon fill-rule="evenodd" clip-rule="evenodd" fill="#DF3619" points="85.7,208.8 89.7,206.9 300.5,641.5 296.5,643.5 			"/>
		</g>
		<g clip-path="url(#SVGID_2_)">
			
				<rect x="193.5" y="182.3" transform="matrix(0.8995 -0.4369 0.4369 0.8995 -165.5386 128.1262)" fill-rule="evenodd" clip-rule="evenodd" fill="#DF3619" width="4.4" height="483.1"/>
		</g>
		<g clip-path="url(#SVGID_2_)">
			<polygon fill-rule="evenodd" clip-rule="evenodd" fill="#E03719" points="91,206.2 95,204.3 305.7,639 301.8,640.9 			"/>
		</g>
		<g clip-path="url(#SVGID_2_)">
			<polygon fill-rule="evenodd" clip-rule="evenodd" fill="#E03819" points="93.6,205 97.6,203 308.4,637.7 304.4,639.6 			"/>
		</g>
		<g clip-path="url(#SVGID_2_)">
			<polygon fill-rule="evenodd" clip-rule="evenodd" fill="#E03819" points="96.3,203.7 100.2,201.7 311,636.4 307.1,638.3 			"/>
		</g>
		<g clip-path="url(#SVGID_2_)">
			<polygon fill-rule="evenodd" clip-rule="evenodd" fill="#E03918" points="98.9,202.4 102.9,200.5 313.7,635.1 309.7,637.1 			"/>
		</g>
		<g clip-path="url(#SVGID_2_)">
			<polygon fill-rule="evenodd" clip-rule="evenodd" fill="#E03A18" points="101.5,201.1 105.5,199.2 316.3,633.9 312.3,635.8 			
				"/>
		</g>
		<g clip-path="url(#SVGID_2_)">
			<polygon fill-rule="evenodd" clip-rule="evenodd" fill="#E03A18" points="104.2,199.8 108.1,197.9 319,632.6 315,634.5 			"/>
		</g>
		<g clip-path="url(#SVGID_2_)">
			<polygon fill-rule="evenodd" clip-rule="evenodd" fill="#E03B18" points="106.8,198.5 110.8,196.6 321.6,631.3 317.6,633.2 			
				"/>
		</g>
		<g clip-path="url(#SVGID_2_)">
			<polygon fill-rule="evenodd" clip-rule="evenodd" fill="#E03B18" points="109.5,197.3 113.4,195.3 324.2,630 320.3,631.9 			"/>
		</g>
		<g clip-path="url(#SVGID_2_)">
			<polygon fill-rule="evenodd" clip-rule="evenodd" fill="#E13C18" points="112.1,196 116.1,194.1 326.9,628.8 322.9,630.7 			"/>
		</g>
		<g clip-path="url(#SVGID_2_)">
			<polygon fill-rule="evenodd" clip-rule="evenodd" fill="#E13D18" points="114.7,194.7 118.7,192.8 329.5,627.5 325.5,629.4 			
				"/>
		</g>
		<g clip-path="url(#SVGID_2_)">
			
				<rect x="222.6" y="168.3" transform="matrix(0.8995 -0.4369 0.4369 0.8995 -156.4583 139.3755)" fill-rule="evenodd" clip-rule="evenodd" fill="#E13D18" width="4.4" height="483.1"/>
		</g>
		<g clip-path="url(#SVGID_2_)">
			<polygon fill-rule="evenodd" clip-rule="evenodd" fill="#E13E18" points="120,192.1 124,190.2 334.8,624.9 330.8,626.8 			"/>
		</g>
		<g clip-path="url(#SVGID_2_)">
			<polygon fill-rule="evenodd" clip-rule="evenodd" fill="#E13F18" points="122.7,190.9 126.6,189 337.4,623.6 333.5,625.6 			"/>
		</g>
		<g clip-path="url(#SVGID_2_)">
			<polygon fill-rule="evenodd" clip-rule="evenodd" fill="#E13F17" points="125.3,189.6 129.3,187.7 340,622.4 336.1,624.3 			"/>
		</g>
		<g clip-path="url(#SVGID_2_)">
			<polygon fill-rule="evenodd" clip-rule="evenodd" fill="#E14017" points="127.9,188.3 131.9,186.4 342.7,621.1 338.7,623 			"/>
		</g>
		<g clip-path="url(#SVGID_2_)">
			<polygon fill-rule="evenodd" clip-rule="evenodd" fill="#E14017" points="130.6,187 134.5,185.1 345.3,619.8 341.4,621.7 			"/>
		</g>
		<g clip-path="url(#SVGID_2_)">
			<polygon fill-rule="evenodd" clip-rule="evenodd" fill="#E14117" points="133.2,185.8 137.2,183.8 348,618.5 344,620.4 			"/>
		</g>
		<g clip-path="url(#SVGID_2_)">
			
				<rect x="241" y="159.3" transform="matrix(0.8995 -0.4369 0.4369 0.8995 -150.7018 146.5634)" fill-rule="evenodd" clip-rule="evenodd" fill="#E24217" width="4.4" height="483.1"/>
		</g>
		<g clip-path="url(#SVGID_2_)">
			<polygon fill-rule="evenodd" clip-rule="evenodd" fill="#E24217" points="138.5,183.2 142.4,181.3 353.3,615.9 349.3,617.9 			
				"/>
		</g>
		<g clip-path="url(#SVGID_2_)">
			<polygon fill-rule="evenodd" clip-rule="evenodd" fill="#E24317" points="141.1,181.9 145.1,180 355.9,614.7 351.9,616.6 			"/>
		</g>
		<g clip-path="url(#SVGID_2_)">
			<polygon fill-rule="evenodd" clip-rule="evenodd" fill="#E24417" points="143.8,180.6 147.7,178.7 358.5,613.4 354.6,615.3 			
				"/>
		</g>
		<g clip-path="url(#SVGID_2_)">
			<polygon fill-rule="evenodd" clip-rule="evenodd" fill="#E24417" points="146.4,179.4 150.3,177.4 361.2,612.1 357.2,614 			"/>
		</g>
		<g clip-path="url(#SVGID_2_)">
			<polygon fill-rule="evenodd" clip-rule="evenodd" fill="#E24516" points="149,178.1 153,176.2 363.8,610.8 359.8,612.7 			"/>
		</g>
		<g clip-path="url(#SVGID_2_)">
			
				<rect x="256.9" y="151.6" transform="matrix(0.8995 -0.4369 0.4369 0.8995 -145.7541 152.7086)" fill-rule="evenodd" clip-rule="evenodd" fill="#E24516" width="4.4" height="483.1"/>
		</g>
		<g clip-path="url(#SVGID_2_)">
			<polygon fill-rule="evenodd" clip-rule="evenodd" fill="#E24616" points="154.3,175.5 158.3,173.6 369.1,608.3 365.1,610.2 			
				"/>
		</g>
		<g clip-path="url(#SVGID_2_)">
			<polygon fill-rule="evenodd" clip-rule="evenodd" fill="#E34716" points="157,174.3 160.9,172.3 371.7,607 367.8,608.9 			"/>
		</g>
		<g clip-path="url(#SVGID_2_)">
			<polygon fill-rule="evenodd" clip-rule="evenodd" fill="#E34716" points="159.6,172.9 163.6,171.1 374.3,605.7 370.4,607.6 			
				"/>
		</g>
		<g clip-path="url(#SVGID_2_)">
			<polygon fill-rule="evenodd" clip-rule="evenodd" fill="#E34816" points="162.2,171.7 166.2,169.8 377,604.4 373,606.4 			"/>
		</g>
		<g clip-path="url(#SVGID_2_)">
			<polygon fill-rule="evenodd" clip-rule="evenodd" fill="#E34916" points="164.9,170.4 168.8,168.5 379.6,603.2 375.7,605.1 			
				"/>
		</g>
		<g clip-path="url(#SVGID_2_)">
			<polygon fill-rule="evenodd" clip-rule="evenodd" fill="#E34916" points="167.5,169.1 171.5,167.2 382.3,601.9 378.3,603.8 			
				"/>
		</g>
		<g clip-path="url(#SVGID_2_)">
			<polygon fill-rule="evenodd" clip-rule="evenodd" fill="#E34A16" points="170.2,167.8 174.1,165.9 384.9,600.6 380.9,602.5 			
				"/>
		</g>
		<g clip-path="url(#SVGID_2_)">
			<polygon fill-rule="evenodd" clip-rule="evenodd" fill="#E34A15" points="172.8,166.6 176.7,164.6 387.6,599.3 383.6,601.2 			
				"/>
		</g>
		<g clip-path="url(#SVGID_2_)">
			<polygon fill-rule="evenodd" clip-rule="evenodd" fill="#E34B15" points="175.4,165.3 179.4,163.4 390.2,598 386.2,600 			"/>
		</g>
		<g clip-path="url(#SVGID_2_)">
			<polygon fill-rule="evenodd" clip-rule="evenodd" fill="#E44C15" points="178.1,164 182,162.1 392.8,596.8 388.9,598.7 			"/>
		</g>
		<g clip-path="url(#SVGID_2_)">
			<polygon fill-rule="evenodd" clip-rule="evenodd" fill="#E44C15" points="180.7,162.7 184.6,160.8 395.5,595.5 391.5,597.4 			
				"/>
		</g>
		<g clip-path="url(#SVGID_2_)">
			<polygon fill-rule="evenodd" clip-rule="evenodd" fill="#E44D15" points="183.3,161.4 187.3,159.5 398.1,594.2 394.1,596.1 			
				"/>
		</g>
		<g clip-path="url(#SVGID_2_)">
			<polygon fill-rule="evenodd" clip-rule="evenodd" fill="#E44E15" points="186,160.2 189.9,158.2 400.7,592.9 396.8,594.8 			"/>
		</g>
		<g clip-path="url(#SVGID_2_)">
			<polygon fill-rule="evenodd" clip-rule="evenodd" fill="#E44E15" points="188.6,158.9 192.6,157 403.4,591.6 399.4,593.6 			"/>
		</g>
		<g clip-path="url(#SVGID_2_)">
			<polygon fill-rule="evenodd" clip-rule="evenodd" fill="#E44F15" points="191.3,157.6 195.2,155.7 406,590.4 402.1,592.3 			"/>
		</g>
		<g clip-path="url(#SVGID_2_)">
			<polygon fill-rule="evenodd" clip-rule="evenodd" fill="#E44F15" points="193.9,156.3 197.9,154.4 408.6,589.1 404.7,591 			"/>
		</g>
		<g clip-path="url(#SVGID_2_)">
			<polygon fill-rule="evenodd" clip-rule="evenodd" fill="#E45015" points="196.5,155 200.5,153.1 411.3,587.8 407.3,589.7 			"/>
		</g>
		<g clip-path="url(#SVGID_2_)">
			<polygon fill-rule="evenodd" clip-rule="evenodd" fill="#E55114" points="199.2,153.8 203.1,151.9 413.9,586.5 410,588.5 			"/>
		</g>
		<g clip-path="url(#SVGID_2_)">
			<polygon fill-rule="evenodd" clip-rule="evenodd" fill="#E55114" points="201.8,152.5 205.8,150.6 416.6,585.2 412.6,587.1 			
				"/>
		</g>
		<g clip-path="url(#SVGID_2_)">
			<polygon fill-rule="evenodd" clip-rule="evenodd" fill="#E55214" points="204.5,151.2 208.4,149.3 419.2,584 415.2,585.9 			"/>
		</g>
		<g clip-path="url(#SVGID_2_)">
			<polygon fill-rule="evenodd" clip-rule="evenodd" fill="#E55314" points="207.1,149.9 211,148 421.9,582.7 417.9,584.6 			"/>
		</g>
		<g clip-path="url(#SVGID_2_)">
			<polygon fill-rule="evenodd" clip-rule="evenodd" fill="#E55314" points="209.7,148.7 213.7,146.7 424.5,581.4 420.5,583.3 			
				"/>
		</g>
		<g clip-path="url(#SVGID_2_)">
			<polygon fill-rule="evenodd" clip-rule="evenodd" fill="#E55414" points="212.4,147.4 216.3,145.5 427.1,580.1 423.2,582 			"/>
		</g>
		<g clip-path="url(#SVGID_2_)">
			<polygon fill-rule="evenodd" clip-rule="evenodd" fill="#E55414" points="215,146.1 219,144.2 429.8,578.8 425.8,580.8 			"/>
		</g>
		<g clip-path="url(#SVGID_2_)">
			<polygon fill-rule="evenodd" clip-rule="evenodd" fill="#E55514" points="217.6,144.8 221.6,142.9 432.4,577.6 428.5,579.5 			
				"/>
		</g>
		<g clip-path="url(#SVGID_2_)">
			<polygon fill-rule="evenodd" clip-rule="evenodd" fill="#E65614" points="220.3,143.5 224.2,141.6 435,576.3 431.1,578.2 			"/>
		</g>
		<g clip-path="url(#SVGID_2_)">
			<polygon fill-rule="evenodd" clip-rule="evenodd" fill="#E65613" points="222.9,142.3 226.9,140.3 437.7,575 433.7,576.9 			"/>
		</g>
		<g clip-path="url(#SVGID_2_)">
			<polygon fill-rule="evenodd" clip-rule="evenodd" fill="#E65713" points="225.6,141 229.5,139 440.3,573.7 436.4,575.6 			"/>
		</g>
		<g clip-path="url(#SVGID_2_)">
			<polygon fill-rule="evenodd" clip-rule="evenodd" fill="#E65813" points="228.2,139.7 232.2,137.8 442.9,572.4 439,574.4 			"/>
		</g>
		<g clip-path="url(#SVGID_2_)">
			
				<rect x="336" y="113.2" transform="matrix(0.8995 -0.4369 0.4369 0.8995 -121.0281 183.4378)" fill-rule="evenodd" clip-rule="evenodd" fill="#E65813" width="4.4" height="483.1"/>
		</g>
		<g clip-path="url(#SVGID_2_)">
			<polygon fill-rule="evenodd" clip-rule="evenodd" fill="#E65913" points="233.5,137.1 237.4,135.2 448.2,569.9 444.3,571.8 			
				"/>
		</g>
		<g clip-path="url(#SVGID_2_)">
			<polygon fill-rule="evenodd" clip-rule="evenodd" fill="#E65913" points="236.1,135.8 240.1,133.9 450.9,568.6 446.9,570.5 			
				"/>
		</g>
		<g clip-path="url(#SVGID_2_)">
			<polygon fill-rule="evenodd" clip-rule="evenodd" fill="#E65A13" points="238.8,134.6 242.7,132.6 453.5,567.3 449.5,569.2 			
				"/>
		</g>
		<g clip-path="url(#SVGID_2_)">
			<polygon fill-rule="evenodd" clip-rule="evenodd" fill="#E65B13" points="241.4,133.3 245.3,131.4 456.2,566.1 452.2,568 			"/>
		</g>
		<g clip-path="url(#SVGID_2_)">
			<polygon fill-rule="evenodd" clip-rule="evenodd" fill="#E75B13" points="244,132 248,130.1 458.8,564.8 454.8,566.7 			"/>
		</g>
		<g clip-path="url(#SVGID_2_)">
			
				<rect x="351.8" y="105.6" transform="matrix(0.8995 -0.4369 0.4369 0.8995 -116.0804 189.5831)" fill-rule="evenodd" clip-rule="evenodd" fill="#E75C13" width="4.4" height="483.1"/>
		</g>
		<g clip-path="url(#SVGID_2_)">
			
				<rect x="354.5" y="104.3" transform="matrix(0.8995 -0.4369 0.4369 0.8995 -115.2504 190.5832)" fill-rule="evenodd" clip-rule="evenodd" fill="#E75D12" width="4.4" height="483.1"/>
		</g>
		<g clip-path="url(#SVGID_2_)">
			<polygon fill-rule="evenodd" clip-rule="evenodd" fill="#E75D12" points="251.9,128.2 255.9,126.3 466.7,560.9 462.8,562.9 			
				"/>
		</g>
		<g clip-path="url(#SVGID_2_)">
			<polygon fill-rule="evenodd" clip-rule="evenodd" fill="#E75E12" points="254.6,126.9 258.5,125 469.3,559.7 465.4,561.6 			"/>
		</g>
		<g clip-path="url(#SVGID_2_)">
			<polygon fill-rule="evenodd" clip-rule="evenodd" fill="#E75E12" points="257.2,125.6 261.2,123.7 472,558.4 468,560.3 			"/>
		</g>
		<g clip-path="url(#SVGID_2_)">
			<polygon fill-rule="evenodd" clip-rule="evenodd" fill="#E75F12" points="259.9,124.3 263.8,122.4 474.6,557.1 470.7,559 			"/>
		</g>
		<g clip-path="url(#SVGID_2_)">
			
				<rect x="367.7" y="97.9" transform="matrix(0.8995 -0.4369 0.4369 0.8995 -111.1256 195.7044)" fill-rule="evenodd" clip-rule="evenodd" fill="#E76012" width="4.4" height="483.1"/>
		</g>
		<g clip-path="url(#SVGID_2_)">
			<polygon fill-rule="evenodd" clip-rule="evenodd" fill="#E86012" points="265.2,121.8 269.1,119.9 479.9,554.5 475.9,556.4 			
				"/>
		</g>
		<g clip-path="url(#SVGID_2_)">
			<polygon fill-rule="evenodd" clip-rule="evenodd" fill="#E86112" points="267.8,120.5 271.7,118.6 482.5,553.2 478.6,555.2 			
				"/>
		</g>
		<g clip-path="url(#SVGID_2_)">
			<polygon fill-rule="evenodd" clip-rule="evenodd" fill="#E86112" points="270.4,119.2 274.4,117.3 485.2,552 481.2,553.9 			"/>
		</g>
		<g clip-path="url(#SVGID_2_)">
			<polygon fill-rule="evenodd" clip-rule="evenodd" fill="#E86211" points="273.1,117.9 277,116 487.8,550.7 483.8,552.6 			"/>
		</g>
		<g clip-path="url(#SVGID_2_)">
			<polygon fill-rule="evenodd" clip-rule="evenodd" fill="#E86311" points="275.7,116.7 279.6,114.7 490.5,549.4 486.5,551.3 			
				"/>
		</g>
		<g clip-path="url(#SVGID_2_)">
			<polygon fill-rule="evenodd" clip-rule="evenodd" fill="#E86311" points="278.3,115.4 282.3,113.4 493.1,548.1 489.1,550 			"/>
		</g>
		<g clip-path="url(#SVGID_2_)">
			
				<rect x="386.1" y="88.9" transform="matrix(0.8995 -0.4369 0.4369 0.8995 -105.3628 202.8972)" fill-rule="evenodd" clip-rule="evenodd" fill="#E86411" width="4.4" height="483.1"/>
		</g>
		<g clip-path="url(#SVGID_2_)">
			<polygon fill-rule="evenodd" clip-rule="evenodd" fill="#E86511" points="283.6,112.8 287.6,110.9 498.4,545.6 494.4,547.5 			
				"/>
		</g>
		<g clip-path="url(#SVGID_2_)">
			<polygon fill-rule="evenodd" clip-rule="evenodd" fill="#E96511" points="286.2,111.6 290.2,109.6 501,544.3 497.1,546.2 			"/>
		</g>
		<g clip-path="url(#SVGID_2_)">
			<polygon fill-rule="evenodd" clip-rule="evenodd" fill="#E96611" points="288.9,110.2 292.8,108.3 503.6,543 499.7,544.9 			"/>
		</g>
		<g clip-path="url(#SVGID_2_)">
			<polygon fill-rule="evenodd" clip-rule="evenodd" fill="#E96611" points="291.5,109 295.5,107.1 506.3,541.7 502.3,543.7 			"/>
		</g>
		<g clip-path="url(#SVGID_2_)">
			<polygon fill-rule="evenodd" clip-rule="evenodd" fill="#E96711" points="294.2,107.7 298.1,105.8 508.9,540.5 505,542.4 			"/>
		</g>
		<g clip-path="url(#SVGID_2_)">
			<polygon fill-rule="evenodd" clip-rule="evenodd" fill="#E96811" points="296.8,106.4 300.8,104.5 511.6,539.2 507.6,541.1 			
				"/>
		</g>
		<g clip-path="url(#SVGID_2_)">
			<polygon fill-rule="evenodd" clip-rule="evenodd" fill="#E96810" points="299.5,105.1 303.4,103.2 514.2,537.9 510.2,539.8 			
				"/>
		</g>
		<g clip-path="url(#SVGID_2_)">
			<polygon fill-rule="evenodd" clip-rule="evenodd" fill="#E96910" points="302.1,103.9 306,101.9 516.8,536.6 512.9,538.5 			"/>
		</g>
		<g clip-path="url(#SVGID_2_)">
			<polygon fill-rule="evenodd" clip-rule="evenodd" fill="#E96A10" points="304.7,102.6 308.7,100.7 519.5,535.3 515.5,537.3 			
				"/>
		</g>
		<g clip-path="url(#SVGID_2_)">
			<polygon fill-rule="evenodd" clip-rule="evenodd" fill="#EA6A10" points="307.4,101.3 311.3,99.4 522.1,534.1 518.1,536 			"/>
		</g>
		<g clip-path="url(#SVGID_2_)">
			<polygon fill-rule="evenodd" clip-rule="evenodd" fill="#EA6B10" points="310,100 314,98.1 524.7,532.8 520.8,534.7 			"/>
		</g>
		<g clip-path="url(#SVGID_2_)">
			
				<rect x="417.8" y="73.6" transform="matrix(0.8995 -0.4369 0.4369 0.8995 -95.4736 215.1892)" fill-rule="evenodd" clip-rule="evenodd" fill="#EA6B10" width="4.4" height="483.1"/>
		</g>
		<g clip-path="url(#SVGID_2_)">
			<polygon fill-rule="evenodd" clip-rule="evenodd" fill="#EA6C10" points="315.3,97.5 319.2,95.5 530,530.2 526.1,532.1 			"/>
		</g>
		<g clip-path="url(#SVGID_2_)">
			<polygon fill-rule="evenodd" clip-rule="evenodd" fill="#EA6D10" points="317.9,96.2 321.9,94.3 532.7,529 528.7,530.9 			"/>
		</g>
		<g clip-path="url(#SVGID_2_)">
			<polygon fill-rule="evenodd" clip-rule="evenodd" fill="#EA6D10" points="320.5,94.9 324.5,93 535.3,527.6 531.4,529.6 			"/>
		</g>
		<g clip-path="url(#SVGID_2_)">
			<polygon fill-rule="evenodd" clip-rule="evenodd" fill="#EA6E0F" points="323.2,93.6 327.1,91.7 537.9,526.4 534,528.3 			"/>
		</g>
		<g clip-path="url(#SVGID_2_)">
			<polygon fill-rule="evenodd" clip-rule="evenodd" fill="#EA6F0F" points="325.8,92.3 329.8,90.4 540.6,525.1 536.6,527 			"/>
		</g>
		<g clip-path="url(#SVGID_2_)">
			<polygon fill-rule="evenodd" clip-rule="evenodd" fill="#EA6F0F" points="328.5,91.1 332.4,89.2 543.2,523.8 539.3,525.7 			"/>
		</g>
		<g clip-path="url(#SVGID_2_)">
			<polygon fill-rule="evenodd" clip-rule="evenodd" fill="#EB700F" points="331.1,89.8 335.1,87.9 545.9,522.5 541.9,524.5 			"/>
		</g>
		<g clip-path="url(#SVGID_2_)">
			<polygon fill-rule="evenodd" clip-rule="evenodd" fill="#EB700F" points="333.8,88.5 337.7,86.6 548.5,521.3 544.5,523.2 			"/>
		</g>
		<g clip-path="url(#SVGID_2_)">
			<polygon fill-rule="evenodd" clip-rule="evenodd" fill="#EB710F" points="336.4,87.2 340.3,85.3 551.1,520 547.2,521.9 			"/>
		</g>
		<g clip-path="url(#SVGID_2_)">
			<polygon fill-rule="evenodd" clip-rule="evenodd" fill="#EB720F" points="339,86 343,84 553.8,518.7 549.8,520.6 			"/>
		</g>
		<g clip-path="url(#SVGID_2_)">
			
				<rect x="446.8" y="59.5" transform="matrix(0.8995 -0.4369 0.4369 0.8995 -86.4068 226.4575)" fill-rule="evenodd" clip-rule="evenodd" fill="#EB720F" width="4.4" height="483.1"/>
		</g>
		<g clip-path="url(#SVGID_2_)">
			<polygon fill-rule="evenodd" clip-rule="evenodd" fill="#EB730F" points="344.3,83.4 348.3,81.5 559,516.1 555.1,518.1 			"/>
		</g>
		<g clip-path="url(#SVGID_2_)">
			<polygon fill-rule="evenodd" clip-rule="evenodd" fill="#EB740F" points="346.9,82.1 350.9,80.2 561.7,514.9 557.7,516.8 			"/>
		</g>
		<g clip-path="url(#SVGID_2_)">
			<polygon fill-rule="evenodd" clip-rule="evenodd" fill="#EB740E" points="349.6,80.8 353.5,78.9 564.3,513.6 560.4,515.5 			"/>
		</g>
		<g clip-path="url(#SVGID_2_)">
			<polygon fill-rule="evenodd" clip-rule="evenodd" fill="#EC750E" points="352.2,79.5 356.2,77.6 567,512.3 563,514.2 			"/>
		</g>
		<g clip-path="url(#SVGID_2_)">
			<polygon fill-rule="evenodd" clip-rule="evenodd" fill="#EC750E" points="354.8,78.3 358.8,76.3 569.6,511 565.7,512.9 			"/>
		</g>
		<g clip-path="url(#SVGID_2_)">
			
				<rect x="462.7" y="51.8" transform="matrix(0.8995 -0.4369 0.4369 0.8995 -81.456 232.5756)" fill-rule="evenodd" clip-rule="evenodd" fill="#EC760E" width="4.4" height="483.1"/>
		</g>
		<g clip-path="url(#SVGID_2_)">
			
				<rect x="465.3" y="50.5" transform="matrix(0.8995 -0.4369 0.4369 0.8995 -80.6368 233.6264)" fill-rule="evenodd" clip-rule="evenodd" fill="#EC770E" width="4.4" height="483.1"/>
		</g>
		<g clip-path="url(#SVGID_2_)">
			<polygon fill-rule="evenodd" clip-rule="evenodd" fill="#EC770E" points="362.8,74.4 366.7,72.5 577.5,507.2 573.6,509.1 			"/>
		</g>
		<g clip-path="url(#SVGID_2_)">
			<polygon fill-rule="evenodd" clip-rule="evenodd" fill="#EC780E" points="365.4,73.1 369.4,71.2 580.2,505.9 576.2,507.8 			"/>
		</g>
		<g clip-path="url(#SVGID_2_)">
			<polygon fill-rule="evenodd" clip-rule="evenodd" fill="#EC790E" points="368.1,71.9 372,70 582.8,504.6 578.8,506.6 			"/>
		</g>
		<g clip-path="url(#SVGID_2_)">
			<polygon fill-rule="evenodd" clip-rule="evenodd" fill="#EC790E" points="370.7,70.6 374.6,68.7 585.4,503.4 581.5,505.3 			"/>
		</g>
		<g clip-path="url(#SVGID_2_)">
			<polygon fill-rule="evenodd" clip-rule="evenodd" fill="#ED7A0D" points="373.3,69.3 377.3,67.4 588.1,502.1 584.1,504 			"/>
		</g>
		<g clip-path="url(#SVGID_2_)">
			
				<rect x="481.1" y="42.9" transform="matrix(0.8995 -0.4369 0.4369 0.8995 -75.6896 239.7784)" fill-rule="evenodd" clip-rule="evenodd" fill="#ED7A0D" width="4.4" height="483.1"/>
		</g>
		<g clip-path="url(#SVGID_2_)">
			<polygon fill-rule="evenodd" clip-rule="evenodd" fill="#ED7B0D" points="378.6,66.8 382.6,64.8 593.3,499.5 589.4,501.4 			"/>
		</g>
		<g clip-path="url(#SVGID_2_)">
			<polygon fill-rule="evenodd" clip-rule="evenodd" fill="#ED7C0D" points="381.2,65.5 385.2,63.6 596,498.2 592,500.2 			"/>
		</g>
		<g clip-path="url(#SVGID_2_)">
			<polygon fill-rule="evenodd" clip-rule="evenodd" fill="#ED7C0D" points="383.9,64.2 387.8,62.3 598.6,496.9 594.7,498.9 			"/>
		</g>
		<g clip-path="url(#SVGID_2_)">
			<polygon fill-rule="evenodd" clip-rule="evenodd" fill="#ED7D0D" points="386.5,62.9 390.5,61 601.3,495.7 597.3,497.6 			"/>
		</g>
		<g clip-path="url(#SVGID_2_)">
			<polygon fill-rule="evenodd" clip-rule="evenodd" fill="#ED7E0D" points="389.1,61.6 393.1,59.7 603.9,494.4 600,496.3 			"/>
		</g>
		<g clip-path="url(#SVGID_2_)">
			<polygon fill-rule="evenodd" clip-rule="evenodd" fill="#ED7E0D" points="391.8,60.4 395.7,58.4 606.6,493.1 602.6,495 			"/>
		</g>
		<g clip-path="url(#SVGID_2_)">
			<polygon fill-rule="evenodd" clip-rule="evenodd" fill="#EE7F0D" points="394.4,59.1 398.4,57.2 609.2,491.8 605.2,493.7 			"/>
		</g>
		<g clip-path="url(#SVGID_2_)">
			<polygon fill-rule="evenodd" clip-rule="evenodd" fill="#EE7F0C" points="397.1,57.8 401,55.9 611.8,490.5 607.9,492.5 			"/>
		</g>
		<g clip-path="url(#SVGID_2_)">
			<polygon fill-rule="evenodd" clip-rule="evenodd" fill="#EE800C" points="399.7,56.5 403.7,54.6 614.5,489.3 610.5,491.2 			"/>
		</g>
		<g clip-path="url(#SVGID_2_)">
			<polygon fill-rule="evenodd" clip-rule="evenodd" fill="#EE810C" points="402.3,55.2 406.3,53.3 617.1,488 613.1,489.9 			"/>
		</g>
		<g clip-path="url(#SVGID_2_)">
			<polygon fill-rule="evenodd" clip-rule="evenodd" fill="#EE810C" points="405,54 409,52.1 619.7,486.7 615.8,488.6 			"/>
		</g>
		<g clip-path="url(#SVGID_2_)">
			<polygon fill-rule="evenodd" clip-rule="evenodd" fill="#EE820C" points="407.6,52.7 411.6,50.7 622.4,485.4 618.4,487.3 			"/>
		</g>
		<g clip-path="url(#SVGID_2_)">
			<polygon fill-rule="evenodd" clip-rule="evenodd" fill="#EE830C" points="410.3,51.4 414.2,49.5 625,484.2 621.1,486.1 			"/>
		</g>
		<g clip-path="url(#SVGID_2_)">
			<polygon fill-rule="evenodd" clip-rule="evenodd" fill="#EE830C" points="412.9,50.1 416.9,48.2 627.6,482.9 623.7,484.8 			"/>
		</g>
		<g clip-path="url(#SVGID_2_)">
			<polygon fill-rule="evenodd" clip-rule="evenodd" fill="#EF840C" points="415.5,48.8 419.5,46.9 630.3,481.6 626.3,483.5 			"/>
		</g>
		<g clip-path="url(#SVGID_2_)">
			<polygon fill-rule="evenodd" clip-rule="evenodd" fill="#EF840C" points="418.2,47.6 422.1,45.6 632.9,480.3 629,482.2 			"/>
		</g>
		<g clip-path="url(#SVGID_2_)">
			<polygon fill-rule="evenodd" clip-rule="evenodd" fill="#EF850C" points="420.8,46.3 424.8,44.4 635.6,479 631.6,481 			"/>
		</g>
		<g clip-path="url(#SVGID_2_)">
			<polygon fill-rule="evenodd" clip-rule="evenodd" fill="#EF860B" points="423.4,45 427.4,43.1 638.2,477.8 634.3,479.7 			"/>
		</g>
		<g clip-path="url(#SVGID_2_)">
			<polygon fill-rule="evenodd" clip-rule="evenodd" fill="#EF860B" points="426.1,43.7 430,41.8 640.9,476.5 636.9,478.4 			"/>
		</g>
		<g clip-path="url(#SVGID_2_)">
			<polygon fill-rule="evenodd" clip-rule="evenodd" fill="#EF870B" points="428.7,42.4 432.7,40.5 643.5,475.2 639.5,477.1 			"/>
		</g>
		<g clip-path="url(#SVGID_2_)">
			<polygon fill-rule="evenodd" clip-rule="evenodd" fill="#EF880B" points="431.4,41.2 435.3,39.2 646.1,473.9 642.2,475.8 			"/>
		</g>
		<g clip-path="url(#SVGID_2_)">
			<polygon fill-rule="evenodd" clip-rule="evenodd" fill="#EF880B" points="434,39.9 438,38 648.8,472.6 644.8,474.6 			"/>
		</g>
		<g clip-path="url(#SVGID_2_)">
			
				<rect x="541.8" y="13.4" transform="matrix(0.8995 -0.4369 0.4369 0.8995 -56.7331 263.3319)" fill-rule="evenodd" clip-rule="evenodd" fill="#EF890B" width="4.4" height="483.1"/>
		</g>
		<g clip-path="url(#SVGID_2_)">
			<polygon fill-rule="evenodd" clip-rule="evenodd" fill="#F0890B" points="439.3,37.3 443.3,35.4 654,470.1 650.1,472 			"/>
		</g>
		<g clip-path="url(#SVGID_2_)">
			<polygon fill-rule="evenodd" clip-rule="evenodd" fill="#F08A0B" points="441.9,36 445.9,34.1 656.7,468.8 652.7,470.7 			"/>
		</g>
		<g clip-path="url(#SVGID_2_)">
			<polygon fill-rule="evenodd" clip-rule="evenodd" fill="#F08B0B" points="444.6,34.8 448.5,32.8 659.3,467.5 655.4,469.4 			"/>
		</g>
		<g clip-path="url(#SVGID_2_)">
			<polygon fill-rule="evenodd" clip-rule="evenodd" fill="#F08B0A" points="447.2,33.5 451.2,31.6 661.9,466.3 658,468.1 			"/>
		</g>
		<g clip-path="url(#SVGID_2_)">
			<polygon fill-rule="evenodd" clip-rule="evenodd" fill="#F08C0A" points="449.8,32.2 453.8,30.3 664.6,464.9 660.6,466.9 			"/>
		</g>
		<g clip-path="url(#SVGID_2_)">
			<polygon fill-rule="evenodd" clip-rule="evenodd" fill="#F08D0A" points="452.5,30.9 456.4,29 667.2,463.7 663.3,465.6 			"/>
		</g>
		<g clip-path="url(#SVGID_2_)">
			
				<rect x="560.3" y="4.5" transform="matrix(0.8995 -0.4369 0.4369 0.8995 -50.9631 270.5008)" fill-rule="evenodd" clip-rule="evenodd" fill="#F08D0A" width="4.4" height="483.1"/>
		</g>
		<g clip-path="url(#SVGID_2_)">
			<polygon fill-rule="evenodd" clip-rule="evenodd" fill="#F08E0A" points="457.8,28.4 461.7,26.5 672.5,461.1 668.6,463 			"/>
		</g>
		<g clip-path="url(#SVGID_2_)">
			<polygon fill-rule="evenodd" clip-rule="evenodd" fill="#F18E0A" points="460.4,27.1 464.3,25.2 675.2,459.8 671.2,461.8 			"/>
		</g>
		<g clip-path="url(#SVGID_2_)">
			<polygon fill-rule="evenodd" clip-rule="evenodd" fill="#F18F0A" points="463,25.8 467,23.9 677.8,458.6 673.8,460.5 			"/>
		</g>
		<g clip-path="url(#SVGID_2_)">
			<polygon fill-rule="evenodd" clip-rule="evenodd" fill="#F1900A" points="465.7,24.5 469.6,22.6 680.4,457.3 676.5,459.2 			"/>
		</g>
		<g clip-path="url(#SVGID_2_)">
			
				<rect x="573.5" y="-1.9" transform="matrix(0.8995 -0.4369 0.4369 0.8995 -46.8395 275.5915)" fill-rule="evenodd" clip-rule="evenodd" fill="#F1900A" width="4.4" height="483.1"/>
		</g>
		<g clip-path="url(#SVGID_2_)">
			
				<rect x="576.1" y="-3.2" transform="matrix(0.8995 -0.4369 0.4369 0.8995 -46.0154 276.6461)" fill-rule="evenodd" clip-rule="evenodd" fill="#F1910A" width="4.4" height="483.1"/>
		</g>
		<g clip-path="url(#SVGID_2_)">
			<polygon fill-rule="evenodd" clip-rule="evenodd" fill="#F19209" points="473.6,20.7 477.6,18.8 688.3,453.4 684.4,455.4 			"/>
		</g>
		<g clip-path="url(#SVGID_2_)">
			<polygon fill-rule="evenodd" clip-rule="evenodd" fill="#F19209" points="476.2,19.4 480.2,17.5 691,452.2 687,454.1 			"/>
		</g>
		<g clip-path="url(#SVGID_2_)">
			<polygon fill-rule="evenodd" clip-rule="evenodd" fill="#F19309" points="478.9,18.1 482.8,16.2 693.6,450.9 689.7,452.8 			"/>
		</g>
		<g clip-path="url(#SVGID_2_)">
			<polygon fill-rule="evenodd" clip-rule="evenodd" fill="#F29309" points="481.5,16.8 485.5,14.9 696.2,449.6 692.3,451.5 			"/>
		</g>
		<g clip-path="url(#SVGID_2_)">
			<polygon fill-rule="evenodd" clip-rule="evenodd" fill="#F29409" points="484.1,15.6 488.1,13.6 698.9,448.3 694.9,450.2 			"/>
		</g>
		<g clip-path="url(#SVGID_2_)">
			
				<rect x="591.9" y="-10.9" transform="matrix(0.8995 -0.4369 0.4369 0.8995 -41.0677 282.7914)" fill-rule="evenodd" clip-rule="evenodd" fill="#F29509" width="4.4" height="483.1"/>
		</g>
		<g clip-path="url(#SVGID_2_)">
			<polygon fill-rule="evenodd" clip-rule="evenodd" fill="#F29509" points="489.4,13 493.4,11.1 704.2,445.8 700.2,447.7 			"/>
		</g>
		<g clip-path="url(#SVGID_2_)">
			<polygon fill-rule="evenodd" clip-rule="evenodd" fill="#F29609" points="492.1,11.7 496,9.8 706.8,444.5 702.9,446.4 			"/>
		</g>
		<g clip-path="url(#SVGID_2_)">
			<polygon fill-rule="evenodd" clip-rule="evenodd" fill="#F29609" points="494.7,10.4 498.6,8.5 709.5,443.2 705.5,445.1 			"/>
		</g>
		<g clip-path="url(#SVGID_2_)">
			<polygon fill-rule="evenodd" clip-rule="evenodd" fill="#F29708" points="497.3,9.2 501.3,7.3 712.1,441.9 708.1,443.9 			"/>
		</g>
		<g clip-path="url(#SVGID_2_)">
			<polygon fill-rule="evenodd" clip-rule="evenodd" fill="#F29808" points="500,7.9 503.9,6 714.7,440.7 710.8,442.6 			"/>
		</g>
		<g clip-path="url(#SVGID_2_)">
			<polygon fill-rule="evenodd" clip-rule="evenodd" fill="#F39808" points="502.6,6.6 506.6,4.7 717.4,439.4 713.4,441.3 			"/>
		</g>
		<g clip-path="url(#SVGID_2_)">
			<polygon fill-rule="evenodd" clip-rule="evenodd" fill="#F39908" points="505.2,5.3 509.2,3.4 720,438.1 716.1,440 			"/>
		</g>
		<g clip-path="url(#SVGID_2_)">
			<polygon fill-rule="evenodd" clip-rule="evenodd" fill="#F39A08" points="507.9,4.1 511.9,2.1 722.6,436.8 718.7,438.7 			"/>
		</g>
		<g clip-path="url(#SVGID_2_)">
			<polygon fill-rule="evenodd" clip-rule="evenodd" fill="#F39A08" points="510.5,2.8 514.5,0.9 725.3,435.5 721.3,437.4 			"/>
		</g>
		<g clip-path="url(#SVGID_2_)">
			<polygon fill-rule="evenodd" clip-rule="evenodd" fill="#F39B08" points="513.2,1.5 517.1,-0.4 727.9,434.2 724,436.2 			"/>
		</g>
		<g clip-path="url(#SVGID_2_)">
			<polygon fill-rule="evenodd" clip-rule="evenodd" fill="#F39B08" points="515.8,0.2 519.8,-1.7 730.5,433 726.6,434.9 			"/>
		</g>
		<g clip-path="url(#SVGID_2_)">
			
				<rect x="623.6" y="-26.2" transform="matrix(0.8995 -0.4369 0.4369 0.8995 -31.1786 295.0833)" fill-rule="evenodd" clip-rule="evenodd" fill="#F39C08" width="4.4" height="483.1"/>
		</g>
		<g clip-path="url(#SVGID_2_)">
			<polygon fill-rule="evenodd" clip-rule="evenodd" fill="#F39D08" points="521.1,-2.3 525,-4.3 735.8,430.4 731.9,432.3 			"/>
		</g>
		<g clip-path="url(#SVGID_2_)">
			<polygon fill-rule="evenodd" clip-rule="evenodd" fill="#F39D07" points="523.7,-3.6 527.7,-5.5 738.5,429.1 734.5,431 			"/>
		</g>
		<g clip-path="url(#SVGID_2_)">
			<polygon fill-rule="evenodd" clip-rule="evenodd" fill="#F49E07" points="526.4,-4.9 530.3,-6.8 741.1,427.8 737.1,429.8 			"/>
		</g>
		<g clip-path="url(#SVGID_2_)">
			<polygon fill-rule="evenodd" clip-rule="evenodd" fill="#F49F07" points="529,-6.2 532.9,-8.1 743.8,426.6 739.8,428.5 			"/>
		</g>
		<g clip-path="url(#SVGID_2_)">
			<polygon fill-rule="evenodd" clip-rule="evenodd" fill="#F49F07" points="531.6,-7.5 535.6,-9.4 746.4,425.3 742.4,427.2 			"/>
		</g>
		<g clip-path="url(#SVGID_2_)">
			<polygon fill-rule="evenodd" clip-rule="evenodd" fill="#F4A007" points="534.3,-8.8 538.2,-10.7 749,424 745.1,425.9 			"/>
		</g>
		<g clip-path="url(#SVGID_2_)">
			<polygon fill-rule="evenodd" clip-rule="evenodd" fill="#F4A007" points="536.9,-10 540.9,-12 751.7,422.7 747.7,424.7 			"/>
		</g>
		<g clip-path="url(#SVGID_2_)">
			<polygon fill-rule="evenodd" clip-rule="evenodd" fill="#F4A107" points="539.5,-11.3 543.5,-13.2 754.3,421.5 750.4,423.4 			
				"/>
		</g>
		<g clip-path="url(#SVGID_2_)">
			<polygon fill-rule="evenodd" clip-rule="evenodd" fill="#F4A207" points="542.2,-12.6 546.2,-14.5 756.9,420.2 753,422.1 			"/>
		</g>
		<g clip-path="url(#SVGID_2_)">
			<polygon fill-rule="evenodd" clip-rule="evenodd" fill="#F4A207" points="544.8,-13.9 548.8,-15.8 759.6,418.9 755.6,420.8 			
				"/>
		</g>
		<g clip-path="url(#SVGID_2_)">
			<polygon fill-rule="evenodd" clip-rule="evenodd" fill="#F5A306" points="547.5,-15.1 551.4,-17.1 762.2,417.6 758.3,419.5 			
				"/>
		</g>
		<g clip-path="url(#SVGID_2_)">
			<polygon fill-rule="evenodd" clip-rule="evenodd" fill="#F5A406" points="550.1,-16.4 554.1,-18.3 764.9,416.3 760.9,418.3 			
				"/>
		</g>
		<g clip-path="url(#SVGID_2_)">
			<polygon fill-rule="evenodd" clip-rule="evenodd" fill="#F5A406" points="552.8,-17.7 556.7,-19.6 767.5,415.1 763.5,417 			"/>
		</g>
		<g clip-path="url(#SVGID_2_)">
			<polygon fill-rule="evenodd" clip-rule="evenodd" fill="#F5A506" points="555.4,-19 559.3,-20.9 770.1,413.8 766.2,415.7 			"/>
		</g>
		<g clip-path="url(#SVGID_2_)">
			<polygon fill-rule="evenodd" clip-rule="evenodd" fill="#F5A506" points="558,-20.3 562,-22.2 772.8,412.5 768.8,414.4 			"/>
		</g>
		<g clip-path="url(#SVGID_2_)">
			<polygon fill-rule="evenodd" clip-rule="evenodd" fill="#F5A606" points="560.7,-21.5 564.6,-23.5 775.4,411.2 771.4,413.1 			
				"/>
		</g>
		<g clip-path="url(#SVGID_2_)">
			<polygon fill-rule="evenodd" clip-rule="evenodd" fill="#F5A706" points="563.3,-22.8 567.2,-24.7 778.1,409.9 774.1,411.9 			
				"/>
		</g>
		<g clip-path="url(#SVGID_2_)">
			
				<rect x="671.1" y="-49.3" transform="matrix(0.8995 -0.4369 0.4369 0.8995 -16.3418 313.5205)" fill-rule="evenodd" clip-rule="evenodd" fill="#F5A706" width="4.4" height="483.1"/>
		</g>
		<g clip-path="url(#SVGID_2_)">
			<polygon fill-rule="evenodd" clip-rule="evenodd" fill="#F6A806" points="568.6,-25.4 572.5,-27.3 783.3,407.4 779.4,409.3 			
				"/>
		</g>
		<g clip-path="url(#SVGID_2_)">
			<polygon fill-rule="evenodd" clip-rule="evenodd" fill="#F6A906" points="571.2,-26.7 575.2,-28.6 786,406.1 782,408 			"/>
		</g>
		<g clip-path="url(#SVGID_2_)">
			<polygon fill-rule="evenodd" clip-rule="evenodd" fill="#F6A905" points="573.8,-27.9 577.8,-29.8 788.6,404.8 784.7,406.8 			
				"/>
		</g>
		<g clip-path="url(#SVGID_2_)">
			<polygon fill-rule="evenodd" clip-rule="evenodd" fill="#F6AA05" points="576.5,-29.2 580.5,-31.1 791.2,403.5 787.3,405.4 			
				"/>
		</g>
		<g clip-path="url(#SVGID_2_)">
			<polygon fill-rule="evenodd" clip-rule="evenodd" fill="#F6AA05" points="579.1,-30.5 583.1,-32.4 793.9,402.3 789.9,404.2 			
				"/>
		</g>
		<g clip-path="url(#SVGID_2_)">
			
				<rect x="686.9" y="-56.9" transform="matrix(0.8995 -0.4369 0.4369 0.8995 -11.3941 319.6658)" fill-rule="evenodd" clip-rule="evenodd" fill="#F6AB05" width="4.4" height="483.1"/>
		</g>
		<g clip-path="url(#SVGID_2_)">
			<polygon fill-rule="evenodd" clip-rule="evenodd" fill="#F6AC05" points="584.4,-33 588.4,-35 799.2,399.7 795.2,401.6 			"/>
		</g>
		<g clip-path="url(#SVGID_2_)">
			<polygon fill-rule="evenodd" clip-rule="evenodd" fill="#F6AC05" points="587.1,-34.3 591,-36.2 801.8,398.4 797.8,400.3 			"/>
		</g>
		<g clip-path="url(#SVGID_2_)">
			<polygon fill-rule="evenodd" clip-rule="evenodd" fill="#F7AD05" points="589.7,-35.6 593.6,-37.5 804.4,397.1 800.5,399.1 			
				"/>
		</g>
		<g clip-path="url(#SVGID_2_)">
			<polygon fill-rule="evenodd" clip-rule="evenodd" fill="#F7AE05" points="592.3,-36.9 596.3,-38.8 807.1,395.9 803.1,397.8 			
				"/>
		</g>
		<g clip-path="url(#SVGID_2_)">
			<polygon fill-rule="evenodd" clip-rule="evenodd" fill="#F7AE05" points="595,-38.2 598.9,-40.1 809.7,394.6 805.7,396.5 			"/>
		</g>
		<g clip-path="url(#SVGID_2_)">
			<polygon fill-rule="evenodd" clip-rule="evenodd" fill="#F7AF04" points="597.6,-39.5 601.6,-41.4 812.4,393.3 808.4,395.2 			
				"/>
		</g>
		<g clip-path="url(#SVGID_2_)">
			<polygon fill-rule="evenodd" clip-rule="evenodd" fill="#F7AF04" points="600.2,-40.7 604.2,-42.7 815,392 811,393.9 			"/>
		</g>
		<g clip-path="url(#SVGID_2_)">
			<polygon fill-rule="evenodd" clip-rule="evenodd" fill="#F7B004" points="602.9,-42 606.8,-43.9 817.6,390.7 813.7,392.7 			"/>
		</g>
		<g clip-path="url(#SVGID_2_)">
			<polygon fill-rule="evenodd" clip-rule="evenodd" fill="#F7B104" points="605.5,-43.3 609.5,-45.2 820.3,389.5 816.3,391.4 			
				"/>
		</g>
		<g clip-path="url(#SVGID_2_)">
			<polygon fill-rule="evenodd" clip-rule="evenodd" fill="#F7B104" points="608.1,-44.6 612.1,-46.5 822.9,388.2 819,390.1 			"/>
		</g>
		<g clip-path="url(#SVGID_2_)">
			<polygon fill-rule="evenodd" clip-rule="evenodd" fill="#F8B204" points="610.8,-45.9 614.7,-47.8 825.5,386.9 821.6,388.8 			
				"/>
		</g>
		<g clip-path="url(#SVGID_2_)">
			<polygon fill-rule="evenodd" clip-rule="evenodd" fill="#F8B304" points="613.4,-47.1 617.4,-49.1 828.2,385.6 824.2,387.5 			
				"/>
		</g>
		<g clip-path="url(#SVGID_2_)">
			<polygon fill-rule="evenodd" clip-rule="evenodd" fill="#F8B304" points="616.1,-48.4 620,-50.3 830.8,384.4 826.9,386.3 			"/>
		</g>
		<g clip-path="url(#SVGID_2_)">
			<polygon fill-rule="evenodd" clip-rule="evenodd" fill="#F8B404" points="618.7,-49.7 622.7,-51.6 833.5,383.1 829.5,385 			"/>
		</g>
		<g clip-path="url(#SVGID_2_)">
			<polygon fill-rule="evenodd" clip-rule="evenodd" fill="#F8B403" points="621.4,-51 625.3,-52.9 836.1,381.8 832.1,383.7 			"/>
		</g>
		<g clip-path="url(#SVGID_2_)">
			<polygon fill-rule="evenodd" clip-rule="evenodd" fill="#F8B503" points="624,-52.2 627.9,-54.2 838.7,380.5 834.8,382.4 			"/>
		</g>
		<g clip-path="url(#SVGID_2_)">
			<polygon fill-rule="evenodd" clip-rule="evenodd" fill="#F8B603" points="626.6,-53.5 630.6,-55.4 841.4,379.2 837.4,381.2 			
				"/>
		</g>
		<g clip-path="url(#SVGID_2_)">
			<polygon fill-rule="evenodd" clip-rule="evenodd" fill="#F8B603" points="629.3,-54.8 633.2,-56.7 844,378 840,379.9 			"/>
		</g>
		<g clip-path="url(#SVGID_2_)">
			<polygon fill-rule="evenodd" clip-rule="evenodd" fill="#F8B703" points="631.9,-56.1 635.9,-58 846.7,376.7 842.7,378.6 			"/>
		</g>
		<g clip-path="url(#SVGID_2_)">
			<polygon fill-rule="evenodd" clip-rule="evenodd" fill="#F9B803" points="634.5,-57.4 638.5,-59.3 849.3,375.4 845.3,377.3 			
				"/>
		</g>
		<g clip-path="url(#SVGID_2_)">
			<polygon fill-rule="evenodd" clip-rule="evenodd" fill="#F9B803" points="637.2,-58.6 641.1,-60.6 851.9,374.1 848,376 			"/>
		</g>
		<g clip-path="url(#SVGID_2_)">
			<polygon fill-rule="evenodd" clip-rule="evenodd" fill="#F9B903" points="639.8,-59.9 643.8,-61.8 854.6,372.8 850.6,374.7 			
				"/>
		</g>
		<g clip-path="url(#SVGID_2_)">
			<polygon fill-rule="evenodd" clip-rule="evenodd" fill="#F9B903" points="642.4,-61.2 646.4,-63.1 857.2,371.5 853.3,373.5 			
				"/>
		</g>
		<g clip-path="url(#SVGID_2_)">
			<polygon fill-rule="evenodd" clip-rule="evenodd" fill="#F9BA03" points="645.1,-62.5 649,-64.4 859.9,370.3 855.9,372.2 			"/>
		</g>
		<g clip-path="url(#SVGID_2_)">
			<polygon fill-rule="evenodd" clip-rule="evenodd" fill="#F9BB02" points="647.7,-63.8 651.7,-65.7 862.5,369 858.5,370.9 			"/>
		</g>
		<g clip-path="url(#SVGID_2_)">
			<polygon fill-rule="evenodd" clip-rule="evenodd" fill="#F9BB02" points="650.4,-65 654.3,-67 865.1,367.7 861.2,369.6 			"/>
		</g>
		<g clip-path="url(#SVGID_2_)">
			<polygon fill-rule="evenodd" clip-rule="evenodd" fill="#F9BC02" points="653,-66.3 657,-68.3 867.8,366.4 863.8,368.3 			"/>
		</g>
		<g clip-path="url(#SVGID_2_)">
			<polygon fill-rule="evenodd" clip-rule="evenodd" fill="#FABD02" points="655.7,-67.6 659.6,-69.5 870.4,365.1 866.4,367.1 			
				"/>
		</g>
		<g clip-path="url(#SVGID_2_)">
			<polygon fill-rule="evenodd" clip-rule="evenodd" fill="#FABD02" points="658.3,-68.9 662.2,-70.8 873,363.9 869.1,365.8 			"/>
		</g>
		<g clip-path="url(#SVGID_2_)">
			
				<rect x="766.1" y="-95.3" transform="matrix(0.8995 -0.4369 0.4369 0.8995 13.3319 350.3949)" fill-rule="evenodd" clip-rule="evenodd" fill="#FABE02" width="4.4" height="483.1"/>
		</g>
		<g clip-path="url(#SVGID_2_)">
			<polygon fill-rule="evenodd" clip-rule="evenodd" fill="#FABE02" points="663.6,-71.5 667.5,-73.4 878.3,361.3 874.3,363.2 			
				"/>
		</g>
		<g clip-path="url(#SVGID_2_)">
			<polygon fill-rule="evenodd" clip-rule="evenodd" fill="#FABF02" points="666.2,-72.7 670.2,-74.6 881,360 877,362 			"/>
		</g>
		<g clip-path="url(#SVGID_2_)">
			<polygon fill-rule="evenodd" clip-rule="evenodd" fill="#FAC002" points="668.8,-74 672.8,-75.9 883.6,358.8 879.6,360.7 			"/>
		</g>
		<g clip-path="url(#SVGID_2_)">
			<polygon fill-rule="evenodd" clip-rule="evenodd" fill="#FAC001" points="671.5,-75.3 675.4,-77.2 886.2,357.5 882.3,359.4 			
				"/>
		</g>
		<g clip-path="url(#SVGID_2_)">
			<polygon fill-rule="evenodd" clip-rule="evenodd" fill="#FAC101" points="674.1,-76.6 678.1,-78.5 888.9,356.2 884.9,358.1 			
				"/>
		</g>
		<g clip-path="url(#SVGID_2_)">
			
				<rect x="781.9" y="-103" transform="matrix(0.8995 -0.4369 0.4369 0.8995 18.2796 356.5402)" fill-rule="evenodd" clip-rule="evenodd" fill="#FBC201" width="4.4" height="483.1"/>
		</g>
		<g clip-path="url(#SVGID_2_)">
			<polygon fill-rule="evenodd" clip-rule="evenodd" fill="#FBC201" points="679.4,-79.1 683.3,-81 894.2,353.6 890.2,355.6 			"/>
		</g>
		<g clip-path="url(#SVGID_2_)">
			<polygon fill-rule="evenodd" clip-rule="evenodd" fill="#FBC301" points="682,-80.4 686,-82.3 896.8,352.4 892.8,354.3 			"/>
		</g>
		<g clip-path="url(#SVGID_2_)">
			<polygon fill-rule="evenodd" clip-rule="evenodd" fill="#FBC301" points="684.7,-81.7 688.6,-83.6 899.4,351.1 895.5,353 			"/>
		</g>
		<g clip-path="url(#SVGID_2_)">
			<polygon fill-rule="evenodd" clip-rule="evenodd" fill="#FBC401" points="687.3,-83 691.3,-84.9 902.1,349.8 898.1,351.7 			"/>
		</g>
		<g clip-path="url(#SVGID_2_)">
			<polygon fill-rule="evenodd" clip-rule="evenodd" fill="#FBC501" points="690,-84.2 693.9,-86.2 904.7,348.5 900.7,350.4 			"/>
		</g>
		<g clip-path="url(#SVGID_2_)">
			
				<rect x="797.8" y="-110.7" transform="matrix(0.8995 -0.4369 0.4369 0.8995 23.2273 362.6855)" fill-rule="evenodd" clip-rule="evenodd" fill="#FBC501" width="4.4" height="483.1"/>
		</g>
		<g clip-path="url(#SVGID_2_)">
			
				<rect x="800.4" y="-112" transform="matrix(0.8995 -0.4369 0.4369 0.8995 24.0496 363.7092)" fill-rule="evenodd" clip-rule="evenodd" fill="#FBC601" width="4.4" height="483.1"/>
		</g>
		<g clip-path="url(#SVGID_2_)">
			<polygon fill-rule="evenodd" clip-rule="evenodd" fill="#FCC700" points="697.9,-88.1 701.8,-90 912.6,344.7 908.7,346.6 			"/>
		</g>
		<g clip-path="url(#SVGID_2_)">
			<polygon fill-rule="evenodd" clip-rule="evenodd" fill="#FCC700" points="700.5,-89.4 704.5,-91.3 915.3,343.4 911.3,345.3 			
				"/>
		</g>
		<g clip-path="url(#SVGID_2_)">
			<polygon fill-rule="evenodd" clip-rule="evenodd" fill="#FCC800" points="703.1,-90.6 707.1,-92.5 917.9,342.1 913.9,344 			"/>
		</g>
		<g clip-path="url(#SVGID_2_)">
			<polygon fill-rule="evenodd" clip-rule="evenodd" fill="#FCC800" points="705.8,-91.9 709.7,-93.8 920.5,340.8 916.6,342.7 			
				"/>
		</g>
		<g clip-path="url(#SVGID_2_)">
			<polygon fill-rule="evenodd" clip-rule="evenodd" fill="#FCC900" points="708.4,-93.2 786.5,-131 997.3,303.6 919.2,341.5 			"/>
		</g>
	</g>
	<g>
		<path fill="#141515" d="M57,211.8l16.6,6.9c-2.6,12.6-6.9,21.7-12.9,27.5c-6,5.8-13.4,8.7-22.1,8.7c-11,0-19.9-4.6-26.8-13.8
			C3.9,230.5,0,216.2,0,198.2c0-19,4-33.9,11.9-44.6c6.9-9.3,16.2-14,27.8-14c9.5,0,17.4,3.5,23.8,10.5c4.5,5,7.9,12.4,10,22.2
			l-16.8,5.3c-1.1-6-3.2-10.7-6.5-13.9c-3.2-3.2-7-4.8-11.4-4.8c-6.2,0-11.3,2.9-15.3,8.8c-4,5.9-5.9,15.6-5.9,29.1
			c0,14,1.9,24,5.8,29.9s8.8,8.9,14.9,8.9c4.5,0,8.4-1.9,11.7-5.7C53.2,226.1,55.6,220.1,57,211.8L57,211.8z M80.9,188.9v-16.8h55.4
			v16.8h-19.6V253h-16.2v-64.1H80.9z M145.5,172.1h15.1V184c2.1-4.3,4.8-7.6,8.2-10.1c3.3-2.4,7-3.7,10.9-3.7c7,0,13,3.6,18,10.8
			c5,7.2,7.5,17.5,7.5,30.7c0,13.9-2.5,24.6-7.6,32c-5.1,7.4-11.1,11.1-18.1,11.1c-3.2,0-6.2-0.9-9-2.6c-2.8-1.7-5.7-4.8-8.8-9.2
			v40.6h-16.3V172.1z M161.5,211.1c0,9.2,1.4,15.9,4.1,20.2c2.7,4.3,6,6.5,9.9,6.5c3.7,0,6.8-2,9.3-6c2.5-4,3.8-10.5,3.8-19.6
			c0-8.6-1.3-15-3.9-19.1c-2.6-4.1-5.8-6.2-9.5-6.2c-3.9,0-7.2,2-9.8,6S161.5,203.1,161.5,211.1L161.5,211.1z M214.1,211.4
			c0-7.9,1.5-15.2,4.4-21.7c2.9-6.5,6.7-11.4,11.4-14.6c4.7-3.2,9.9-4.9,15.8-4.9c9.8,0,17.5,4.2,23.2,12.6
			c5.6,8.4,8.4,18.1,8.4,29.3c0,8.4-1.4,15.9-4.4,22.6c-2.9,6.7-6.7,11.8-11.5,15.1c-4.7,3.4-9.9,5.1-15.6,5.1
			c-9.1,0-16.6-3.8-22.6-11.3C217.1,236,214.1,225.3,214.1,211.4L214.1,211.4z M230.7,212.5c0,8.2,1.5,14.4,4.5,18.6
			c3,4.2,6.5,6.3,10.7,6.3c4.1,0,7.6-2.1,10.5-6.3c2.9-4.2,4.4-10.4,4.4-18.7c0-8-1.5-14.1-4.4-18.3c-3-4.3-6.5-6.3-10.7-6.3
			c-4.1,0-7.6,2.1-10.5,6.3C232.2,198.2,230.7,204.4,230.7,212.5L230.7,212.5z M289.7,253v-80.9h15.5v50.8l24.8-50.8h16.1V253h-15.5
			v-51.8L305.3,253H289.7z M329.3,140.2h7.9c-0.4,7.1-2.3,12.6-5.6,16.4s-7.4,5.8-12.4,5.8s-9-1.9-12.4-5.8s-5.2-9.3-5.7-16.4h7.9
			c0.6,7.3,4,10.9,10.1,10.9S328.7,147.4,329.3,140.2L329.3,140.2z M414.2,253v-92.7h-25.1v-18.9h67.1v18.9h-25.1V253H414.2z
			 M466.7,172.1h15.1V184c2.1-4.3,4.8-7.6,8.2-10.1c3.4-2.4,7-3.7,10.9-3.7c7,0,13,3.6,18,10.8c5,7.2,7.5,17.5,7.5,30.7
			c0,13.9-2.5,24.6-7.6,32c-5.1,7.4-11.1,11.1-18,11.1c-3.3,0-6.2-0.9-9-2.6c-2.8-1.7-5.7-4.8-8.8-9.2v40.6h-16.3V172.1z
			 M482.8,211.1c0,9.2,1.4,15.9,4.1,20.2c2.7,4.3,6,6.5,9.9,6.5c3.7,0,6.8-2,9.3-6c2.5-4,3.8-10.5,3.8-19.6c0-8.6-1.3-15-3.9-19.1
			c-2.6-4.1-5.8-6.2-9.5-6.2c-3.9,0-7.2,2-9.8,6C484.1,197.1,482.8,203.1,482.8,211.1L482.8,211.1z M551.5,196.7l-14.7-3.3
			c1.8-8.2,4.7-14.2,8.8-17.8c4.1-3.6,9.9-5.4,17.6-5.4c6.8,0,12,1,15.6,3.1c3.6,2.1,6.2,4.9,7.7,8.5c1.5,3.6,2.3,10.1,2.3,19.6
			l-0.1,25c0,7,0.3,12.2,0.8,15.7s1.4,7.1,2.8,10.9h-16l-2.1-8.8c-2.7,3.6-5.7,6.2-8.9,8c-3.2,1.8-6.5,2.7-10.1,2.7
			c-6,0-10.9-2.2-14.7-6.5c-3.8-4.4-5.7-10.1-5.7-17.3c0-4.6,0.8-8.6,2.3-12c1.6-3.4,3.7-6.1,6.5-8.1c2.8-2,7.3-3.9,13.5-5.4
			c7.5-1.9,12.8-3.6,15.7-5.3c0-4.5-0.3-7.4-0.9-8.8c-0.6-1.4-1.6-2.5-3.2-3.4c-1.6-0.9-3.8-1.3-6.6-1.3c-2.9,0-5.2,0.7-6.8,2.2
			C553.9,190.2,552.5,192.8,551.5,196.7L551.5,196.7z M573.1,214c-2.1,0.9-5.3,2-9.7,3.2c-5,1.4-8.3,3-9.9,4.7
			c-1.6,1.7-2.3,4-2.3,6.7c0,3.1,0.9,5.7,2.6,7.9c1.7,2.1,3.9,3.1,6.5,3.1c2.3,0,4.6-0.9,6.8-2.6c2.3-1.7,3.8-3.7,4.7-6.1
			c0.9-2.3,1.3-6.6,1.3-12.8V214z M604.2,253v-80.9h16.3v29.5h23.2v-29.5h16.2V253h-16.2v-34.1h-23.2V253H604.2z M729.6,196.1
			l-16,3.7c-1.2-8.5-4.9-12.8-11.1-12.8c-4,0-7.2,1.8-9.7,5.5c-2.4,3.7-3.7,9.9-3.7,18.6c0,9.6,1.2,16.4,3.7,20.4c2.4,4,5.7,6,9.8,6
			c3,0,5.6-1.1,7.5-3.4c2-2.3,3.4-6.3,4.2-12l16,3.6c-3.3,19.5-12.7,29.3-28.3,29.3c-10,0-17.3-4.1-22.2-12.4
			c-4.8-8.2-7.3-18.1-7.3-29.7c0-13.9,2.7-24.4,8.2-31.7c5.5-7.2,12.6-10.9,21.5-10.9c7.2,0,13,2.1,17.5,6.2
			C724.3,180.6,727.6,187.1,729.6,196.1L729.6,196.1z M69.1,398.8V287.2h63.2v18.9H86.1v25.6h24.2c9.1,0,16.3,3.1,21.5,9.2
			c5.2,6.2,7.8,14.3,7.8,24.4c0,8.8-2.2,16.6-6.7,23.4c-4.4,6.7-12,10.1-22.7,10.1H69.1z M86.1,350.5V380h18c4.7,0,8.1-0.3,10.1-1
			c2.1-0.7,3.9-2.3,5.5-4.8c1.6-2.5,2.4-5.4,2.4-8.7c0-10-5.8-15-17.3-15H86.1z M189,373.1l16.1,3.6c-2.2,8.1-5.5,14.1-10.1,18.1
			c-4.6,3.9-10.1,5.9-16.6,5.9c-9.1,0-16-3.3-21-9.9c-5.8-7.6-8.7-18.3-8.7-32c0-13.5,2.9-24.3,8.8-32.5c5-6.9,11.4-10.3,19.3-10.3
			c8.8,0,15.6,3.5,20.6,10.5c5.7,8,8.6,19.9,8.6,35.5l-0.1,2.4h-40.6c0.1,6.4,1.4,11.3,4,14.9c2.6,3.5,5.7,5.2,9.3,5.2
			C183.7,384.6,187.2,380.8,189,373.1L189,373.1z M189.8,351.4c-0.1-6.3-1.4-11.1-3.7-14.2c-2.4-3.2-5.1-4.8-8.4-4.8
			c-3.4,0-6.3,1.7-8.7,5c-2.4,3.3-3.6,8.1-3.5,14.1H189.8z M211.9,334.8v-16.8h55.4v16.8h-19.6v64.1h-16.3v-64.1H211.9z M273,357.2
			c0-7.9,1.4-15.1,4.4-21.7c2.9-6.5,6.7-11.4,11.4-14.6c4.7-3.2,9.9-4.9,15.8-4.9c9.8,0,17.5,4.2,23.2,12.5
			c5.6,8.4,8.4,18.1,8.4,29.3c0,8.3-1.5,15.9-4.4,22.6c-2.9,6.7-6.8,11.8-11.5,15.1c-4.8,3.4-9.9,5.1-15.6,5.1
			c-9.1,0-16.6-3.8-22.6-11.3C276,381.9,273,371.2,273,357.2L273,357.2z M289.6,358.4c0,8.2,1.5,14.3,4.4,18.6
			c3,4.2,6.5,6.3,10.7,6.3c4.1,0,7.6-2.1,10.5-6.3c2.9-4.2,4.4-10.4,4.4-18.7c0-8-1.5-14.1-4.5-18.4c-3-4.2-6.5-6.3-10.7-6.3
			c-4.1,0-7.6,2.1-10.6,6.3C291,344.1,289.6,350.3,289.6,358.4L289.6,358.4z M348.3,398.8v-80.9h16.3v29.5h23.2v-29.5H404v80.9
			h-16.2v-34.2h-23.2v34.2H348.3z"/>
	</g>
	<g>
		<path fill="#141515" d="M225.4,7.6h-13.8v33.2h-6.8V1.4h20.6V7.6z M258.9,26.9c0,4.1-1.4,7.5-4.1,10.4c-2.7,2.9-6.1,4.3-10.2,4.3
			c-3.7,0-6.9-1.3-9.5-3.9V53h-6V12.6h6V16c2.5-2.7,5.6-4.1,9.3-4.1c4.2,0,7.7,1.4,10.4,4.3C257.6,19.1,258.9,22.6,258.9,26.9
			L258.9,26.9z M252.8,26.8c0-2.6-0.9-4.8-2.6-6.6c-1.7-1.8-3.8-2.7-6.4-2.7c-2.4,0-4.4,0.9-6.2,2.7c-1.7,1.8-2.6,3.9-2.6,6.3
			c0,2.5,0.8,4.7,2.5,6.6c1.7,1.9,3.7,2.8,6.2,2.8c2.4,0,4.5-0.9,6.3-2.7C251.9,31.4,252.8,29.3,252.8,26.8L252.8,26.8z M289,12.6
			L273.4,53h-6.3l5.1-13.2l-11.1-27.3h6.4l7.8,20l7.3-20H289z M315.7,40.9h-6.1v-23h-11.5v23H292V12.6h23.7V40.9z M345.5,40.9h-6.1
			v-23h-11.5v23h-6.1V12.6h23.7V40.9z M380.1,40.9h-6v-3.5c-2.4,2.8-5.5,4.2-9.3,4.2c-4.2,0-7.7-1.4-10.4-4.3
			c-2.7-2.9-4.1-6.4-4.1-10.6c0-4.1,1.4-7.6,4.1-10.5c2.7-2.9,6.1-4.3,10.2-4.3c3.9,0,7,1.3,9.3,4v-3.2h6.2V40.9z M374.1,26.8
			c0-2.6-0.9-4.8-2.5-6.6c-1.7-1.8-3.8-2.8-6.3-2.8c-2.4,0-4.5,0.9-6.2,2.7c-1.7,1.8-2.6,4-2.6,6.4c0,2.5,0.9,4.7,2.6,6.5
			c1.7,1.9,3.8,2.8,6.3,2.8c2.3,0,4.4-0.9,6.1-2.8C373.2,31.3,374.1,29.2,374.1,26.8L374.1,26.8z"/>
	</g>
	<g>
		<path fill="#141515" d="M123.3,95.6h-7.4l-10.5-14.1v14.1h-6V67.3h6v13.1l10.9-13.1h6.9l-11.4,13.5L123.3,95.6z M153.4,81.2
			c0,4.3-1.4,7.9-4.3,10.8c-2.9,2.9-6.4,4.4-10.7,4.4c-4.2,0-7.7-1.4-10.6-4.3c-2.9-2.9-4.3-6.4-4.3-10.6c0-4.1,1.4-7.7,4.4-10.6
			c2.9-2.9,6.4-4.4,10.5-4.4c4.1,0,7.7,1.4,10.7,4.3C151.9,73.6,153.4,77.1,153.4,81.2L153.4,81.2z M147.2,81.5
			c0-2.6-0.8-4.8-2.5-6.6c-1.6-1.8-3.7-2.7-6.4-2.7c-2.5,0-4.6,0.9-6.3,2.7c-1.6,1.8-2.4,4-2.4,6.5c0,2.6,0.8,4.8,2.4,6.5
			c1.6,1.8,3.7,2.6,6.3,2.6c2.6,0,4.7-0.9,6.3-2.6C146.4,86.2,147.2,84,147.2,81.5L147.2,81.5z M190.3,95.6h-5.9v-19l-7.9,19h-4.6
			l-7.9-19v19h-5.9V67.3h7.9l8.2,20.9l8.2-20.9h7.9V95.6z M220.2,95.6h-6.1v-23h-11.5v23h-6.1V67.3h23.7V95.6z M254.7,95.6h-6v-3.5
			c-2.4,2.8-5.5,4.2-9.3,4.2c-4.2,0-7.7-1.4-10.4-4.3c-2.7-2.9-4.1-6.4-4.1-10.6c0-4.1,1.4-7.6,4.1-10.5c2.7-2.9,6.1-4.3,10.2-4.3
			c3.9,0,7,1.3,9.3,4v-3.2h6.2V95.6z M248.7,81.6c0-2.6-0.9-4.8-2.5-6.6c-1.7-1.9-3.8-2.8-6.3-2.8c-2.4,0-4.5,0.9-6.2,2.7
			c-1.7,1.8-2.6,4-2.6,6.4c0,2.5,0.9,4.7,2.6,6.5c1.7,1.9,3.8,2.8,6.3,2.8c2.3,0,4.4-0.9,6.1-2.8C247.8,86.1,248.7,84,248.7,81.6
			L248.7,81.6z M284.9,95.6h-6.1V83.8h-11.9v11.8h-6.1V67.3h6.1v11.4h11.9V67.3h6.1V95.6z M316.4,95.6h-6.2V76.5l-13.5,19.2h-5.6
			V67.3h6.1v19l13.6-19h5.6V95.6z M342.9,57.8c0,2.3-0.7,4.2-2.1,5.8c-1.5,1.7-3.3,2.5-5.6,2.5c-2.2,0-4-0.8-5.4-2.5
			s-2.2-3.6-2.2-5.8h4.1c0,1.2,0.3,2.2,0.9,3.1c0.6,0.9,1.5,1.3,2.7,1.3c2.4,0,3.5-1.4,3.5-4.3H342.9z M347.8,95.6h-6.2V76.4
			l-13.5,19.2h-5.6V67.3h6.1v19l13.5-19h5.7V95.6z"/>
	</g>
</g>
</svg>
